# xmcd CD database file
# Generated: Mon May 26 22:56:12 2003 by KSCD
# 
# Track frame offsets:
#       187
#       14714
#       31934
#       47919
#       62017
#       73252
#       103984
#       116449
#       131627
#
# Disc length: 1931 seconds
#
# Revision: 1
# Processed by: cddbd v1.4PL0 Copyright (c) Steve Scherf et al.
# Submitted via: Kscd 1.3.3
#
DISCID=85078909
DTITLE=eivets rednow - eivets rednow
DYEAR=1900
DGENRE=
TTITLE0=Alfie
TTITLE1=More Than A Dream
TTITLE2=A House Is Not A Home
TTITLE3=How Can You Believe
TTITLE4=Never My Love/Ask The Lonely
TTITLE5=Ruby
TTITLE6=Which Way The Wind
TTITLE7=Bye Bye World
TTITLE8=Grazing In The Grass
EXTD=
EXTT0=
EXTT1=
EXTT2=
EXTT3=
EXTT4=
EXTT5=
EXTT6=
EXTT7=
EXTT8=
PLAYORDER=
